<?xml version="1.0" encoding="UTF-8" standalone="no"?>
<!-- Created with Inkscape (http://www.inkscape.org/) -->

<svg
   xmlns:dc="http://purl.org/dc/elements/1.1/"
   xmlns:cc="http://creativecommons.org/ns#"
   xmlns:rdf="http://www.w3.org/1999/02/22-rdf-syntax-ns#"
   xmlns:svg="http://www.w3.org/2000/svg"
   xmlns="http://www.w3.org/2000/svg"
   xmlns:sodipodi="http://sodipodi.sourceforge.net/DTD/sodipodi-0.dtd"
   xmlns:inkscape="http://www.inkscape.org/namespaces/inkscape"
   width="344.7583mm"
   height="344.7583mm"
   viewBox="0 0 344.75829 344.7583"
   version="1.1"
   id="svg8"
   sodipodi:docname="logo.svg"
   inkscape:version="0.92.3 (2405546, 2018-03-11)"
   inkscape:export-filename="C:\Users\mmore\Nextcloud\Images\logo\v3\logo.png"
   inkscape:export-xdpi="96"
   inkscape:export-ydpi="96">
  <defs
     id="defs2" />
  <sodipodi:namedview
     id="base"
     pagecolor="#ffffff"
     bordercolor="#666666"
     borderopacity="1.0"
     inkscape:pageopacity="0.0"
     inkscape:pageshadow="2"
     inkscape:zoom="0.24748737"
     inkscape:cx="1035.9924"
     inkscape:cy="674.58802"
     inkscape:document-units="mm"
     inkscape:current-layer="layer1"
     showgrid="false"
     inkscape:window-width="1920"
     inkscape:window-height="1017"
     inkscape:window-x="-8"
     inkscape:window-y="-8"
     inkscape:window-maximized="1"
     inkscape:snap-center="true"
     inkscape:snap-midpoints="false"
     inkscape:snap-intersection-paths="false"
     inkscape:object-nodes="true"
     fit-margin-top="0"
     fit-margin-left="0"
     fit-margin-right="0"
     fit-margin-bottom="0" />
  <metadata
     id="metadata5">
    <rdf:RDF>
      <cc:Work
         rdf:about="">
        <dc:format>image/svg+xml</dc:format>
        <dc:type
           rdf:resource="http://purl.org/dc/dcmitype/StillImage" />
        <dc:title></dc:title>
      </cc:Work>
    </rdf:RDF>
  </metadata>
  <g
     inkscape:label="Layer 1"
     inkscape:groupmode="layer"
     id="layer1"
     transform="translate(1520.0621,691.41901)">
    <g
       id="g2521">
      <path
         inkscape:transform-center-y="-49.821506"
         inkscape:transform-center-x="-85.72435"
         id="circle914-3-2-65-4"
         d="m -1347.6829,-691.01871 a 171.97916,171.97916 0 0 0 -0.5307,0.026 l 29.3093,29.3125 a 145.52083,145.52083 0 0 1 116.7448,142.6404 145.52083,145.52083 0 0 1 -19.3895,72.3361 l 33.7173,-9.0346 a 171.97916,171.97916 0 0 0 12.128,-63.3015 171.97916,171.97916 0 0 0 -171.9792,-171.9792 z"
         style="opacity:1;fill:#c00000;fill-opacity:1;stroke:none;stroke-width:0.80000001;stroke-linecap:square;stroke-miterlimit:4;stroke-dasharray:none;stroke-opacity:1"
         inkscape:connector-curvature="0" />
      <path
         inkscape:connector-curvature="0"
         style="opacity:1;fill:#c00000;fill-opacity:1;stroke:none;stroke-width:0.80000001;stroke-linecap:square;stroke-miterlimit:4;stroke-dasharray:none;stroke-opacity:1"
         d="m -1198.745,-433.05034 a 171.97916,171.97916 0 0 0 0.2428,-0.4726 l -40.04,10.72635 a 145.52083,145.52083 45 0 1 -181.9026,29.78376 145.52083,145.52083 45 0 1 -52.9501,-52.95985 l -9.0345,33.71734 a 171.97916,171.97916 0 0 0 48.7567,42.15391 171.97916,171.97916 0 0 0 234.928,-62.94876 z"
         id="path2514"
         inkscape:transform-center-x="-7.2172002"
         inkscape:transform-center-y="122.52324" />
      <path
         inkscape:transform-center-y="-41.825078"
         inkscape:transform-center-x="86.200681"
         id="path2516"
         d="m -1496.6211,-433.05052 a 171.97916,171.97916 0 0 0 0.2879,0.44657 l 10.7307,-40.03883 a 145.52083,145.52083 45 0 1 65.1578,-172.42416 145.52083,145.52083 45 0 1 72.3396,-19.3762 l -24.6828,-24.68278 a 171.97916,171.97916 0 0 0 -60.8847,21.14759 171.97916,171.97916 0 0 0 -62.9488,234.92799 z"
         style="opacity:1;fill:#c00000;fill-opacity:1;stroke:none;stroke-width:0.80000001;stroke-linecap:square;stroke-miterlimit:4;stroke-dasharray:none;stroke-opacity:1"
         inkscape:connector-curvature="0" />
    </g>
  </g>
</svg>
